<svg width="32" height="32" viewBox="0 0 32 32" fill="none" xmlns="http://www.w3.org/2000/svg">
<path d="M29.5002 1.75C29.4008 1.75 29.3054 1.78951 29.235 1.85983C29.1647 1.93016 29.1252 2.02554 29.1252 2.125V10.875C29.1252 10.9745 29.1647 11.0698 29.235 11.1402C29.3054 11.2105 29.4008 11.25 29.5002 11.25C29.5997 11.25 29.6951 11.2105 29.7654 11.1402C29.8357 11.0698 29.8752 10.9745 29.8752 10.875V2.125C29.8752 2.02554 29.8357 1.93016 29.7654 1.85983C29.6951 1.78951 29.5997 1.75 29.5002 1.75Z" fill="#263238"/>
<path d="M2.12514 2.125V10.875C2.12514 10.9745 2.16465 11.0698 2.23497 11.1402C2.3053 11.2105 2.40068 11.25 2.50014 11.25C2.59959 11.25 2.69498 11.2105 2.7653 11.1402C2.83563 11.0698 2.87514 10.9745 2.87514 10.875V2.125C2.87514 2.02554 2.83563 1.93016 2.7653 1.85983C2.69498 1.78951 2.59959 1.75 2.50014 1.75C2.40068 1.75 2.3053 1.78951 2.23497 1.85983C2.16465 1.93016 2.12514 2.02554 2.12514 2.125Z" fill="#263238"/>
<path d="M29.5002 4.625C30.6738 4.625 31.6252 3.6736 31.6252 2.5C31.6252 1.32639 30.6738 0.375 29.5002 0.375C28.3266 0.375 27.3752 1.32639 27.3752 2.5C27.3752 3.6736 28.3266 4.625 29.5002 4.625Z" fill="#37474F"/>
<path d="M16.0001 2.00002C7.35459 2.00002 0.375092 8.54326 0.375092 17.128V22.8388C0.375092 24.0419 0.853017 25.1957 1.70373 26.0464C2.55444 26.8971 3.70825 27.375 4.91134 27.375H11.8781C11.9854 27.3743 12.0893 27.4123 12.1707 27.4822C12.2522 27.552 12.3057 27.6489 12.3213 27.755C12.3963 28.5129 12.2394 29.2757 11.8713 29.9425C11.7781 30.1332 11.7435 30.3473 11.7717 30.5577C11.8 30.768 11.8899 30.9654 12.0302 31.1247C12.1704 31.2841 12.3547 31.3983 12.5598 31.4531C12.7649 31.5079 12.9816 31.5007 13.1826 31.4325C15.1413 30.756 17.5658 29.5643 19.0308 27.563C19.0722 27.5052 19.1267 27.4581 19.1898 27.4254C19.2529 27.3927 19.3228 27.3755 19.3938 27.375H27.0888C28.2919 27.375 29.4457 26.8971 30.2965 26.0464C31.1472 25.1957 31.6251 24.0419 31.6251 22.8388V17.128C31.6263 8.54326 24.6456 2.00002 16.0001 2.00002Z" fill="#DFE2E8"/>
<path d="M5.87516 24.125C5.27842 24.125 4.70612 23.888 4.28417 23.466C3.86221 23.044 3.62516 22.4717 3.62516 21.875V17C3.51316 10.307 9.38866 5.14126 16.0002 5.12501C22.6319 5.10851 28.4894 10.2845 28.3752 17V21.875C28.3752 22.4717 28.1381 23.044 27.7161 23.466C27.2942 23.888 26.7219 24.125 26.1252 24.125H5.87516Z" fill="#37474F"/>
<path d="M2.50017 4.62502C3.67377 4.62502 4.62517 3.67362 4.62517 2.50002C4.62517 1.32641 3.67377 0.375015 2.50017 0.375015C1.32656 0.375015 0.375168 1.32641 0.375168 2.50002C0.375168 3.67362 1.32656 4.62502 2.50017 4.62502Z" fill="#37474F"/>
<path d="M9.75011 15.375C10.7856 15.375 11.6251 14.5355 11.6251 13.5C11.6251 12.4645 10.7856 11.625 9.75011 11.625C8.71457 11.625 7.87511 12.4645 7.87511 13.5C7.87511 14.5355 8.71457 15.375 9.75011 15.375Z" fill="#03A9F4"/>
<path d="M22.25 15.375C23.2856 15.375 24.125 14.5355 24.125 13.5C24.125 12.4645 23.2856 11.625 22.25 11.625C21.2145 11.625 20.375 12.4645 20.375 13.5C20.375 14.5355 21.2145 15.375 22.25 15.375Z" fill="#03A9F4"/>
<path d="M12.55 17.125C12.4388 17.125 12.3289 17.1497 12.2284 17.1974C12.1279 17.245 12.0393 17.3145 11.9689 17.4006C11.8986 17.4868 11.8483 17.5875 11.8216 17.6955C11.795 17.8035 11.7927 17.916 11.815 18.025C12.0211 18.9819 12.5489 19.8392 13.3104 20.4541C14.0719 21.0691 15.0212 21.4045 16 21.4045C16.9788 21.4045 17.928 21.0691 18.6896 20.4541C19.4511 19.8392 19.9789 18.9819 20.185 18.025C20.2072 17.916 20.205 17.8035 20.1783 17.6955C20.1517 17.5875 20.1014 17.4868 20.031 17.4006C19.9607 17.3145 19.872 17.245 19.7716 17.1974C19.6711 17.1497 19.5612 17.125 19.45 17.125H12.55Z" fill="white"/>
<path d="M19.1426 20.03C18.742 20.4636 18.256 20.8096 17.7152 21.0462C17.1744 21.2828 16.5904 21.405 16.0001 21.405C15.4098 21.405 14.8258 21.2828 14.285 21.0462C13.7442 20.8096 13.2582 20.4636 12.8576 20.03C13.2665 19.6106 13.7552 19.2773 14.2949 19.0498C14.8346 18.8222 15.4144 18.705 16.0001 18.705C16.5858 18.705 17.1656 18.8222 17.7053 19.0498C18.245 19.2773 18.7337 19.6106 19.1426 20.03Z" fill="#03A9F4"/>
</svg>
