<svg width="24" height="24" viewBox="0 0 24 24" fill="none" xmlns="http://www.w3.org/2000/svg">
<path d="M9.67589 11.6748C10.3251 11.6748 10.851 10.9549 10.851 10.0679C10.851 9.18094 10.3251 8.46104 9.67589 8.46104C9.02668 8.46104 8.50077 9.18094 8.50077 10.0679C8.50077 10.9549 9.02668 11.6748 9.67589 11.6748ZM7.05943 12.7903C7.0382 12.5388 6.95245 17.0638 12.0106 17.3365C16.9642 17.1318 16.9642 12.7903 16.9642 12.7903C12.0008 13.95 7.05943 12.7903 7.05943 12.7903ZM16.3387 13.6977C16.3387 13.6977 15.7924 15.3021 12.214 15.3021C9.35169 15.3021 7.81399 14.3488 7.63515 13.6977C7.63515 13.6977 12.463 14.5618 16.3387 13.6977ZM11.8408 2.99994C6.78178 2.99994 3 7.11296 3 12.1867C3 17.2604 6.94102 20.9999 12 20.9999C17.059 20.9999 21 17.2604 21 12.1867C21.0008 7.11296 16.8997 2.99994 11.8408 2.99994ZM12.0008 19.6609C7.69477 19.6609 4.34008 16.4782 4.34008 12.1596C4.34008 7.84105 7.55921 4.33982 11.8653 4.33982C16.1713 4.33982 19.6624 7.84105 19.6624 12.1596C19.6616 16.4774 16.3069 19.6609 12.0008 19.6609ZM14.5389 11.6748C15.1881 11.6748 15.714 10.9549 15.714 10.0679C15.714 9.18094 15.1881 8.46104 14.5389 8.46104C13.8897 8.46104 13.3638 9.18094 13.3638 10.0679C13.3638 10.9549 13.8897 11.6748 14.5389 11.6748Z" fill="#5F6269"/>
</svg>
