<svg width="36" height="32" viewBox="0 0 36 32" fill="none" xmlns="http://www.w3.org/2000/svg">
<rect width="32" height="32" rx="16" fill="#F36531"/>
<path d="M16.0715 15.9091C16.0715 16.9962 15.8726 17.9309 15.4749 18.7131C15.0771 19.492 14.5319 20.0919 13.8392 20.5128C13.1498 20.9304 12.366 21.1392 11.4877 21.1392C10.606 21.1392 9.81886 20.9304 9.12615 20.5128C8.43676 20.0919 7.8932 19.4903 7.49547 18.7081C7.09775 17.9259 6.89888 16.9929 6.89888 15.9091C6.89888 14.822 7.09775 13.889 7.49547 13.1101C7.8932 12.3279 8.43676 11.728 9.12615 11.3104C9.81886 10.8894 10.606 10.679 11.4877 10.679C12.366 10.679 13.1498 10.8894 13.8392 11.3104C14.5319 11.728 15.0771 12.3279 15.4749 13.1101C15.8726 13.889 16.0715 14.822 16.0715 15.9091ZM14.5502 15.9091C14.5502 15.0805 14.4159 14.3828 14.1475 13.8161C13.8823 13.246 13.5177 12.8151 13.0537 12.5234C12.593 12.2285 12.071 12.081 11.4877 12.081C10.901 12.081 10.3773 12.2285 9.91664 12.5234C9.45594 12.8151 9.09135 13.246 8.82289 13.8161C8.55774 14.3828 8.42516 15.0805 8.42516 15.9091C8.42516 16.7377 8.55774 17.437 8.82289 18.0071C9.09135 18.5739 9.45594 19.0047 9.91664 19.2997C10.3773 19.5914 10.901 19.7372 11.4877 19.7372C12.071 19.7372 12.593 19.5914 13.0537 19.2997C13.5177 19.0047 13.8823 18.5739 14.1475 18.0071C14.4159 17.437 14.5502 16.7377 14.5502 15.9091ZM17.9868 21V10.8182H21.616C22.4049 10.8182 23.0595 10.9541 23.5798 11.2259C24.1035 11.4976 24.4946 11.8738 24.7531 12.3544C25.0116 12.8317 25.1409 13.3835 25.1409 14.0099C25.1409 14.633 25.01 15.1816 24.7481 15.6555C24.4896 16.1262 24.0985 16.4924 23.5748 16.7543C23.0545 17.0161 22.3999 17.147 21.6111 17.147H18.8618V15.8246H21.4719C21.969 15.8246 22.3734 15.7533 22.6849 15.6108C22.9998 15.4683 23.2301 15.2611 23.376 14.9893C23.5218 14.7176 23.5947 14.3911 23.5947 14.0099C23.5947 13.6255 23.5202 13.2924 23.371 13.0107C23.2252 12.7289 22.9948 12.5135 22.68 12.3643C22.3684 12.2119 21.9591 12.1357 21.452 12.1357H19.523V21H17.9868ZM23.0131 16.4062L25.5287 21H23.7787L21.3128 16.4062H23.0131Z" fill="white"/>
<circle cx="30" cy="6" r="5" fill="#58B859" stroke="white" stroke-width="2"/>
</svg>
