<svg width="24" height="24" viewBox="0 0 24 24" fill="none" xmlns="http://www.w3.org/2000/svg">
<path fill-rule="evenodd" clip-rule="evenodd" d="M21.0117 7.1454C20.3857 6.8734 19.6597 6.9914 19.1607 7.4514L16.9997 9.4514V7.9994C16.9997 6.3454 15.6547 4.9994 13.9997 4.9994H4.99969C3.34569 4.9994 1.99969 6.3454 1.99969 7.9994V15.9994C1.99969 17.6544 3.34569 18.9994 4.99969 18.9994H13.9997C15.6547 18.9994 16.9997 17.6544 16.9997 15.9994V14.5484L19.1607 16.5474C19.4817 16.8444 19.8967 16.9994 20.3197 16.9994C20.5527 16.9994 20.7877 16.9524 21.0117 16.8544C21.6207 16.5884 21.9997 16.0194 21.9997 15.3704V8.6294C21.9997 7.9804 21.6207 7.4114 21.0117 7.1454Z" fill="#F36531"/>
<mask id="mask0_2001_616" style="mask-type:luminance" maskUnits="userSpaceOnUse" x="1" y="4" width="21" height="15">
<path fill-rule="evenodd" clip-rule="evenodd" d="M21.0117 7.1454C20.3857 6.8734 19.6597 6.9914 19.1607 7.4514L16.9997 9.4514V7.9994C16.9997 6.3454 15.6547 4.9994 13.9997 4.9994H4.99969C3.34569 4.9994 1.99969 6.3454 1.99969 7.9994V15.9994C1.99969 17.6544 3.34569 18.9994 4.99969 18.9994H13.9997C15.6547 18.9994 16.9997 17.6544 16.9997 15.9994V14.5484L19.1607 16.5474C19.4817 16.8444 19.8967 16.9994 20.3197 16.9994C20.5527 16.9994 20.7877 16.9524 21.0117 16.8544C21.6207 16.5884 21.9997 16.0194 21.9997 15.3704V8.6294C21.9997 7.9804 21.6207 7.4114 21.0117 7.1454Z" fill="white"/>
</mask>
<g mask="url(#mask0_2001_616)">
<rect width="24" height="24" fill="#F36531"/>
</g>
</svg>
