<svg width="24" height="24" viewBox="0 0 24 24" fill="none" xmlns="http://www.w3.org/2000/svg">
<g clip-path="url(#clip0_2001_323)">
<path d="M3.78009 5.07568C3.78009 4.78154 3.77573 4.52008 3.78081 4.25862C3.79461 3.52219 4.30736 3.00218 5.03798 3.00218C9.64108 2.99927 14.2442 2.99927 18.848 3.00218C19.5677 3.00218 20.0819 3.50911 20.1066 4.22957C20.1161 4.49975 20.1081 4.77064 20.1081 5.07568C20.3354 5.07568 20.5417 5.07277 20.7472 5.07568C21.4473 5.08802 21.9441 5.56083 21.9927 6.2595C21.9985 6.34084 21.9978 6.42291 21.9978 6.50425C21.9978 10.0187 21.9964 13.5331 22 17.0475C22 17.4317 21.9441 17.7897 21.6666 18.0803C21.3994 18.3599 21.0675 18.4732 20.6862 18.4724C19.2881 18.4703 17.89 18.4666 16.4912 18.4782C16.3119 18.4797 16.1136 18.5305 15.9574 18.6184C14.7104 19.3251 13.4707 20.0426 12.2331 20.766C12.0632 20.8655 11.9354 20.8677 11.764 20.7667C10.5199 20.0375 9.27068 19.3164 8.01787 18.6024C7.88423 18.5262 7.71429 18.4804 7.56032 18.479C6.17096 18.4695 4.78234 18.4739 3.39298 18.4732C2.48224 18.4739 2.00145 17.9931 2.00073 17.078C2 13.5636 2 10.0492 2 6.53475C2 5.52814 2.45464 5.07713 3.46706 5.07568C3.55712 5.07568 3.64718 5.07568 3.78009 5.07568ZM4.0597 5.05316H19.8357C19.8357 4.81422 19.8357 4.59779 19.8357 4.38064C19.8335 3.64275 19.4668 3.27308 18.734 3.27308C16.7454 3.27308 14.7576 3.27308 12.7691 3.27308C10.209 3.27308 7.64892 3.27308 5.0881 3.27308C4.52161 3.27308 4.11707 3.59627 4.06478 4.11845C4.03428 4.42203 4.05897 4.73143 4.05897 5.05244L4.0597 5.05316ZM11.9906 11.7101C10.3601 11.7138 8.97073 12.8126 8.58436 14.393C8.49357 14.7656 8.57201 15.0539 8.86833 15.3146C10.6506 16.8819 13.3283 16.8863 15.1193 15.3233C15.4149 15.0655 15.5057 14.7808 15.4149 14.4053C15.0336 12.8184 13.6268 11.7065 11.9898 11.7101H11.9906ZM13.5949 8.64166C13.5927 7.76578 12.8781 7.05113 12.0022 7.0475C11.1212 7.04387 10.3979 7.77449 10.4037 8.66345C10.4095 9.54804 11.1147 10.2511 11.9956 10.2511C12.8904 10.2511 13.5971 9.53933 13.5949 8.64239V8.64166ZM13.7627 11.8561C14.9131 12.5221 15.5682 13.4815 15.765 14.8179C16.0809 14.5869 16.3714 14.4017 16.6242 14.1744C16.72 14.088 16.7868 13.8969 16.7694 13.7669C16.5878 12.427 15.1266 11.4843 13.7634 11.8554L13.7627 11.8561ZM10.2294 11.859C8.89593 11.4654 7.36495 12.4611 7.2226 13.7873C7.21098 13.8933 7.24294 14.048 7.31484 14.1112C7.59445 14.3538 7.89803 14.5687 8.23357 14.8258C8.43474 13.4706 9.09057 12.5228 10.2294 11.8598V11.859ZM14.234 10.6629C14.8317 10.6367 15.176 10.4334 15.3663 10.015C15.5515 9.60832 15.497 9.21323 15.2137 8.86971C14.9218 8.51674 14.5354 8.40998 14.0895 8.50875C13.9384 8.54216 13.8876 8.62495 13.852 8.78328C13.7808 9.09485 13.6886 9.41223 13.5426 9.69402C13.3719 10.023 13.3392 10.1312 13.6406 10.3586C13.8476 10.5147 14.1084 10.6004 14.234 10.6629ZM9.60694 10.6512C10.0267 10.6404 10.3296 10.4711 10.5475 10.145C10.6252 10.0288 10.6433 9.93732 10.538 9.81168C10.2867 9.51246 10.1647 9.15804 10.1277 8.76512C10.119 8.67434 10.0035 8.54361 9.91343 8.51892C9.47258 8.39836 9.08185 8.51456 8.78844 8.86898C8.50301 9.21323 8.45145 9.61123 8.6381 10.0172C8.83056 10.4348 9.17554 10.6396 9.60767 10.6505L9.60694 10.6512Z" fill="#5F6269"/>
</g>
<defs>
<clipPath id="clip0_2001_323">
<rect width="20" height="17.8415" fill="white" transform="translate(2 3)"/>
</clipPath>
</defs>
</svg>
