<svg width="32" height="32" viewBox="0 0 32 32" fill="none" xmlns="http://www.w3.org/2000/svg">
<rect x="0.5" y="0.5" width="31" height="31" rx="7.5" fill="white"/>
<rect x="0.5" y="0.5" width="31" height="31" rx="7.5" stroke="#DFE2E8"/>
<path fill-rule="evenodd" clip-rule="evenodd" d="M16 11C17.104 11 18 10.104 18 9C18 7.896 17.104 7 16 7C14.896 7 14 7.896 14 9C14 10.104 14.896 11 16 11ZM16 14C14.896 14 14 14.896 14 16C14 17.104 14.896 18 16 18C17.104 18 18 17.104 18 16C18 14.896 17.104 14 16 14ZM14 23C14 21.896 14.896 21 16 21C17.104 21 18 21.896 18 23C18 24.104 17.104 25 16 25C14.896 25 14 24.104 14 23Z" fill="#5F6269"/>
</svg>
