<svg width="24" height="24" viewBox="0 0 24 24" fill="none" xmlns="http://www.w3.org/2000/svg">
<rect x="0.000137329" width="24" height="24" rx="12" fill="#F36531"/>
<path d="M12.0614 12.6364C12.0614 13.5682 11.8909 14.3693 11.55 15.0398C11.2091 15.7074 10.7418 16.2216 10.148 16.5824C9.55713 16.9403 8.88526 17.1193 8.13242 17.1193C7.37674 17.1193 6.70202 16.9403 6.10827 16.5824C5.51736 16.2216 5.05145 15.706 4.71054 15.0355C4.36963 14.3651 4.19918 13.5653 4.19918 12.6364C4.19918 11.7045 4.36963 10.9048 4.71054 10.2372C5.05145 9.56676 5.51736 9.05256 6.10827 8.6946C6.70202 8.33381 7.37674 8.15341 8.13242 8.15341C8.88526 8.15341 9.55713 8.33381 10.148 8.6946C10.7418 9.05256 11.2091 9.56676 11.55 10.2372C11.8909 10.9048 12.0614 11.7045 12.0614 12.6364ZM10.7574 12.6364C10.7574 11.9261 10.6424 11.3281 10.4122 10.8423C10.185 10.3537 9.87247 9.98438 9.47475 9.73438C9.07986 9.48153 8.63242 9.35511 8.13242 9.35511C7.62958 9.35511 7.18071 9.48153 6.78583 9.73438C6.39094 9.98438 6.07844 10.3537 5.84833 10.8423C5.62105 11.3281 5.50742 11.9261 5.50742 12.6364C5.50742 13.3466 5.62105 13.946 5.84833 14.4347C6.07844 14.9205 6.39094 15.2898 6.78583 15.5426C7.18071 15.7926 7.62958 15.9176 8.13242 15.9176C8.63242 15.9176 9.07986 15.7926 9.47475 15.5426C9.87247 15.2898 10.185 14.9205 10.4122 14.4347C10.6424 13.946 10.7574 13.3466 10.7574 12.6364ZM13.7031 17V8.27273H16.8139C17.49 8.27273 18.0511 8.3892 18.4971 8.62216C18.946 8.85511 19.2812 9.17756 19.5028 9.58949C19.7244 9.99858 19.8352 10.4716 19.8352 11.0085C19.8352 11.5426 19.723 12.0128 19.4985 12.419C19.2769 12.8224 18.9417 13.1364 18.4929 13.3608C18.0468 13.5852 17.4858 13.6974 16.8096 13.6974H14.4531V12.5639H16.6903C17.1164 12.5639 17.463 12.5028 17.7301 12.3807C18 12.2585 18.1974 12.081 18.3224 11.848C18.4474 11.6151 18.5099 11.3352 18.5099 11.0085C18.5099 10.679 18.446 10.3935 18.3181 10.152C18.1931 9.91051 17.9957 9.72585 17.7258 9.59801C17.4588 9.46733 17.1079 9.40199 16.6733 9.40199H15.0198V17H13.7031ZM18.0113 13.0625L20.1676 17H18.6676L16.5539 13.0625H18.0113Z" fill="white"/>
<circle cx="18.0001" cy="6" r="5" fill="#58B859" stroke="white" stroke-width="2"/>
</svg>
