<svg width="40" height="40" viewBox="0 0 40 40" fill="none" xmlns="http://www.w3.org/2000/svg">
<g filter="url(#filter0_i_0_868)">
<rect x="0.00012207" width="40" height="40" rx="20" fill="white"/>
<rect x="1.00012" y="1" width="38" height="38" rx="19" stroke="#DFE2E8" stroke-width="2"/>
<path fill-rule="evenodd" clip-rule="evenodd" d="M28.4018 20.9837C28.1855 20.7963 27.8957 20.7165 27.6111 20.7734L25.2276 21.2342C25.0799 21.2626 24.9266 21.2342 24.8011 21.149C24.676 21.0639 24.5907 20.9327 24.5622 20.7847L23.908 17.395C23.8796 17.2469 23.908 17.0935 23.9932 16.9683C24.0784 16.8432 24.2095 16.758 24.3575 16.7294L27.0421 16.2118C27.463 16.1321 27.7758 15.7738 27.7987 15.3472C27.8158 15.057 27.6964 14.7839 27.4801 14.5965C27.2638 14.4088 26.9739 14.3289 26.6894 14.3859L24.0045 14.9036C23.6973 14.9605 23.3959 14.7616 23.339 14.4544L22.8159 11.7581C22.7363 11.3373 22.378 11.0245 21.9514 11.0016C21.6612 10.9845 21.3881 11.104 21.2007 11.3203C21.0129 11.5365 20.9331 11.8264 20.9901 12.1109L21.5135 14.8071C21.5419 14.9549 21.5135 15.1086 21.4283 15.2338C21.3432 15.3589 21.2121 15.4441 21.064 15.4727L17.6743 16.1268C17.5262 16.1551 17.3728 16.1268 17.2476 16.0416C17.1223 15.9564 17.0371 15.8254 17.0084 15.6775L16.4911 12.9927C16.4112 12.5717 16.0531 12.259 15.6265 12.2362C15.3363 12.2193 15.0632 12.3385 14.8755 12.5548C14.6881 12.771 14.6082 13.0611 14.6652 13.3456L15.1828 16.0302C15.2398 16.3374 15.0408 16.6388 14.7333 16.6957L12.0375 17.2188C11.6165 17.2986 11.3037 17.657 11.2808 18.0836C11.2638 18.3734 11.3832 18.6466 11.5995 18.8342C11.8157 19.0218 12.1056 19.1015 12.3901 19.0447L15.0863 18.5214C15.2341 18.4932 15.3875 18.5214 15.513 18.6067C15.6381 18.6919 15.7233 18.8226 15.7519 18.9707L16.406 22.3607C16.4629 22.6678 16.264 22.9693 15.9565 23.0261L13.2719 23.5439C12.851 23.6235 12.5382 23.9818 12.5153 24.4085C12.4983 24.6982 12.6177 24.9715 12.834 25.1591C13.0502 25.3467 13.3401 25.4263 13.6246 25.3695L16.3095 24.852C16.3435 24.8464 16.3831 24.8404 16.4174 24.8404C16.6846 24.8404 16.9235 25.0282 16.9747 25.3013L17.5491 28.2418C17.6289 28.663 17.9873 28.9757 18.4139 28.9984C18.7037 29.0154 18.9769 28.896 19.1645 28.6797C19.3522 28.4637 19.4318 28.1736 19.3749 27.8891L18.8003 24.9485C18.772 24.8005 18.8003 24.6471 18.8855 24.5219C18.9707 24.3965 19.1017 24.3114 19.2499 24.2828L22.6396 23.6286C22.7877 23.6002 22.9411 23.6286 23.0662 23.7138C23.1916 23.7989 23.2768 23.9301 23.3054 24.0781L23.8228 26.7627C23.9026 27.1836 24.2607 27.4964 24.6874 27.5193C24.9774 27.5364 25.2507 27.4169 25.4384 27.2007C25.6258 26.9844 25.7055 26.6945 25.6487 26.41L25.1309 23.7254C25.0741 23.418 25.2731 23.1166 25.5805 23.0596L27.9636 22.5991C28.3845 22.5193 28.6973 22.1612 28.7203 21.7345C28.7319 21.4505 28.6181 21.1774 28.4018 20.9837ZM22.282 21.8086L18.892 22.4628C18.8578 22.4685 18.8181 22.4744 18.7842 22.4744C18.6703 22.4744 18.5623 22.4401 18.4656 22.3776C18.3404 22.2924 18.2551 22.1617 18.2267 22.0136L17.5724 18.6236C17.5156 18.3164 17.7145 18.015 18.0217 17.9581L21.4116 17.3039C21.5594 17.2756 21.7131 17.3039 21.8382 17.3891C21.9634 17.4743 22.0486 17.6054 22.0771 17.7535L22.7313 21.1432C22.7881 21.4505 22.589 21.746 22.282 21.8086Z" fill="#5F6269"/>
</g>
<defs>
<filter id="filter0_i_0_868" x="0.00012207" y="0" width="40" height="44" filterUnits="userSpaceOnUse" color-interpolation-filters="sRGB">
<feFlood flood-opacity="0" result="BackgroundImageFix"/>
<feBlend mode="normal" in="SourceGraphic" in2="BackgroundImageFix" result="shape"/>
<feColorMatrix in="SourceAlpha" type="matrix" values="0 0 0 0 0 0 0 0 0 0 0 0 0 0 0 0 0 0 127 0" result="hardAlpha"/>
<feOffset dy="4"/>
<feGaussianBlur stdDeviation="4"/>
<feComposite in2="hardAlpha" operator="arithmetic" k2="-1" k3="1"/>
<feColorMatrix type="matrix" values="0 0 0 0 0 0 0 0 0 0 0 0 0 0 0 0 0 0 0.1 0"/>
<feBlend mode="normal" in2="shape" result="effect1_innerShadow_0_868"/>
</filter>
</defs>
</svg>
