<svg width="40" height="40" viewBox="0 0 40 40" fill="none" xmlns="http://www.w3.org/2000/svg">
<g filter="url(#filter0_i_2001_514)">
<rect x="0.000137329" width="40" height="40" rx="20" fill="white"/>
<rect x="1.00014" y="1" width="38" height="38" rx="19" stroke="#DFE2E8" stroke-width="2"/>
<g clip-path="url(#clip0_2001_514)">
<path d="M19.4376 28H12.3439C12.1889 27.9258 12.0743 27.8112 12.0001 27.6562C12.0001 27.5729 12.0001 27.4896 12.0001 27.4062C12.0864 27.2912 12.166 27.1704 12.2597 27.0621C12.6156 26.6492 12.976 26.24 13.3397 25.8237C13.3093 25.7846 13.2822 25.7467 13.2526 25.7117C12.7097 25.0771 12.3364 24.3546 12.1418 23.5429C12.0789 23.2825 12.0464 23.0146 12.0001 22.75C12.0001 22.5104 12.0001 22.2708 12.0001 22.0312C12.0093 21.9912 12.0235 21.9517 12.0276 21.9112C12.0772 21.3937 12.211 20.8983 12.4314 20.4287C13.1272 18.9458 14.2997 17.98 15.791 17.3779C17.0847 16.8558 18.4306 16.7183 19.8064 16.9417C21.4818 17.2142 22.9168 17.9396 24.0226 19.2542C25.4322 20.9304 25.5818 23.1975 24.3839 25.0279C23.441 26.4687 22.0901 27.3554 20.4451 27.8079C20.1168 27.8983 19.7739 27.9371 19.4376 28ZM16.6868 22.3062C16.6839 21.7929 16.2618 21.3746 15.7476 21.3754C15.2276 21.3762 14.8068 21.8042 14.8131 22.3258C14.8189 22.8379 15.2451 23.2537 15.7597 23.2492C16.2718 23.2446 16.6897 22.8196 16.6868 22.3058V22.3062ZM19.5306 22.3092C19.5289 21.7954 19.1081 21.3758 18.5939 21.3758C18.0797 21.3758 17.6585 21.7946 17.6564 22.3079C17.6543 22.8283 18.0797 23.2529 18.6006 23.2496C19.1131 23.2462 19.5322 22.8225 19.5306 22.3092ZM22.3743 22.3075C22.3718 21.7942 21.9501 21.375 21.4364 21.3754C20.916 21.3758 20.4951 21.8033 20.5006 22.325C20.506 22.8371 20.9318 23.2533 21.446 23.2496C21.9581 23.2458 22.3768 22.8208 22.3743 22.3075Z" fill="#5F6269"/>
<path d="M28.0001 21.9687C27.876 22.2404 27.6626 22.3287 27.3706 22.3167C26.961 22.2996 26.5501 22.3125 26.1447 22.3125C26.101 21.9708 26.0772 21.6383 26.0131 21.3142C25.7514 19.9925 25.0872 18.8942 24.1043 17.9871C22.8972 16.8729 21.4606 16.2387 19.8439 15.9992C18.5189 15.8029 17.2185 15.9175 15.9426 16.3221C15.9151 16.3308 15.886 16.3358 15.8043 16.355C15.9156 16.0225 15.9943 15.7158 16.1181 15.4287C16.6201 14.2621 17.4843 13.4296 18.5843 12.8283C19.4356 12.3629 20.3506 12.1025 21.3176 12.0262C21.3581 12.0229 21.3976 12.0092 21.4376 12C21.7397 12 22.0418 12 22.3439 12C22.3893 12.0087 22.4347 12.0221 22.4806 12.0254C23.6647 12.1204 24.7597 12.4783 25.7401 13.1546C26.7851 13.8754 27.531 14.8208 27.8585 16.0642C27.9231 16.3087 27.9539 16.5625 28.0001 16.8121V17.4996C27.9906 17.5446 27.9768 17.5887 27.9718 17.6342C27.8943 18.3496 27.6539 19.0079 27.2635 19.61C27.1201 19.8312 26.956 20.0387 26.7947 20.2621C26.9506 20.4446 27.1118 20.6271 27.2668 20.815C27.5135 21.1146 27.756 21.4171 28.0006 21.7187V21.9687H28.0001Z" fill="#5F6269"/>
</g>
</g>
<defs>
<filter id="filter0_i_2001_514" x="0.000137329" y="0" width="40" height="44" filterUnits="userSpaceOnUse" color-interpolation-filters="sRGB">
<feFlood flood-opacity="0" result="BackgroundImageFix"/>
<feBlend mode="normal" in="SourceGraphic" in2="BackgroundImageFix" result="shape"/>
<feColorMatrix in="SourceAlpha" type="matrix" values="0 0 0 0 0 0 0 0 0 0 0 0 0 0 0 0 0 0 127 0" result="hardAlpha"/>
<feOffset dy="4"/>
<feGaussianBlur stdDeviation="4"/>
<feComposite in2="hardAlpha" operator="arithmetic" k2="-1" k3="1"/>
<feColorMatrix type="matrix" values="0 0 0 0 0 0 0 0 0 0 0 0 0 0 0 0 0 0 0.1 0"/>
<feBlend mode="normal" in2="shape" result="effect1_innerShadow_2001_514"/>
</filter>
<clipPath id="clip0_2001_514">
<rect width="16" height="16" fill="white" transform="translate(12.0001 12)"/>
</clipPath>
</defs>
</svg>
