<svg width="25" height="24" viewBox="0 0 25 24" fill="none" xmlns="http://www.w3.org/2000/svg">
<path fill-rule="evenodd" clip-rule="evenodd" d="M15.5842 17.8968C15.7403 18.7821 14.9702 19.6897 13.9026 19.8779C12.8351 20.0661 11.801 19.4767 11.6449 18.5914L11.5857 18.2556L15.525 17.561L15.5842 17.8968ZM21.4619 13.6781L19.3752 12.2152L18.5993 7.81507C17.9948 4.38695 15.0175 1.91033 11.6726 2.05335C9.73646 2.1358 7.92769 3.04978 6.71637 4.55905C5.49723 6.07579 4.99136 8.03846 5.32719 9.94307L6.13836 14.5492L4.67897 16.6384C4.29853 17.1817 4.2832 17.8952 4.63979 18.4548C4.99736 19.0142 5.65029 19.3022 6.3042 19.1869L9.61611 18.6029L9.67532 18.9387C10.0257 20.926 12.0774 22.2306 14.2499 21.8475C16.4224 21.4644 17.9042 19.5368 17.5538 17.5495L17.4946 17.2137L20.8055 16.6299C21.4594 16.5146 21.9746 16.0216 22.1182 15.3728C22.2628 14.7249 22.0044 14.0596 21.4619 13.6781Z" fill="#5F6269"/>
</svg>
