<svg width="15" height="16" viewBox="0 0 15 16" fill="none" xmlns="http://www.w3.org/2000/svg">
<path d="M11.2778 14.5896C11.2778 15.3684 10.6446 16 9.86599 16H2.33658C1.55715 16 0.924805 15.3684 0.924805 14.5896V4.23389C0.924805 3.45517 1.558 2.82353 2.33658 2.82353H9.86599C10.6454 2.82353 11.2778 3.45512 11.2778 4.23389V14.5896ZM6.10129 9.88235C7.27083 9.88235 8.21894 8.93426 8.21894 7.76469C8.21894 6.59513 7.27083 5.64704 6.10129 5.64704C4.93174 5.64704 3.98363 6.59513 3.98363 7.76469C3.98363 8.93426 4.93174 9.88235 6.10129 9.88235ZM3.27775 11.5294C3.27775 11.6594 3.3831 11.7647 3.51305 11.7647H8.68953C8.81947 11.7647 8.92482 11.6594 8.92482 11.5294V11.0588C8.92482 10.9289 8.81947 10.8235 8.68953 10.8235H3.51305C3.3831 10.8235 3.27775 10.9289 3.27775 11.0588V11.5294ZM4.45424 13.4118C4.45424 13.5417 4.55959 13.6471 4.68953 13.6471H7.51306C7.643 13.6471 7.74836 13.5417 7.74836 13.4118V12.9412C7.74836 12.8112 7.643 12.7059 7.51306 12.7059H4.68953C4.55959 12.7059 4.45424 12.8112 4.45424 12.9412V13.4118ZM3.74834 1.88236V1.41175C3.74834 0.632059 4.38042 0 5.16012 0H12.6895C13.4692 0 14.1013 0.632059 14.1013 1.41175V11.7647C14.1013 12.5444 13.4692 13.1764 12.6895 13.1764H12.2189V4.23389C12.2189 2.93512 11.165 1.88236 9.86599 1.88236H3.74834ZM6.10129 8.94118C5.45153 8.94118 4.92482 8.41445 4.92482 7.76472C4.92482 7.11499 5.45156 6.58826 6.10129 6.58826C6.75101 6.58826 7.27775 7.11499 7.27775 7.76472C7.27775 8.41445 6.75104 8.94118 6.10129 8.94118Z" fill="#5F6269"/>
</svg>
