<svg width="25" height="24" viewBox="0 0 25 24" fill="none" xmlns="http://www.w3.org/2000/svg">
<rect x="0.513062" width="24" height="24" rx="12" fill="#F36531"/>
<path d="M12.5743 12.6364C12.5743 13.5682 12.4039 14.3693 12.063 15.0398C11.722 15.7074 11.2547 16.2216 10.661 16.5824C10.0701 16.9403 9.39818 17.1193 8.64534 17.1193C7.88966 17.1193 7.21494 16.9403 6.62119 16.5824C6.03028 16.2216 5.56438 15.706 5.22347 15.0355C4.88256 14.3651 4.7121 13.5653 4.7121 12.6364C4.7121 11.7045 4.88256 10.9048 5.22347 10.2372C5.56438 9.56676 6.03028 9.05256 6.62119 8.6946C7.21494 8.33381 7.88966 8.15341 8.64534 8.15341C9.39818 8.15341 10.0701 8.33381 10.661 8.6946C11.2547 9.05256 11.722 9.56676 12.063 10.2372C12.4039 10.9048 12.5743 11.7045 12.5743 12.6364ZM11.2703 12.6364C11.2703 11.9261 11.1553 11.3281 10.9252 10.8423C10.6979 10.3537 10.3854 9.98438 9.98767 9.73438C9.59278 9.48153 9.14534 9.35511 8.64534 9.35511C8.1425 9.35511 7.69364 9.48153 7.29875 9.73438C6.90386 9.98438 6.59136 10.3537 6.36125 10.8423C6.13398 11.3281 6.02034 11.9261 6.02034 12.6364C6.02034 13.3466 6.13398 13.946 6.36125 14.4347C6.59136 14.9205 6.90386 15.2898 7.29875 15.5426C7.69364 15.7926 8.1425 15.9176 8.64534 15.9176C9.14534 15.9176 9.59278 15.7926 9.98767 15.5426C10.3854 15.2898 10.6979 14.9205 10.9252 14.4347C11.1553 13.946 11.2703 13.3466 11.2703 12.6364ZM14.216 17V8.27273H17.3268C18.0029 8.27273 18.564 8.3892 19.01 8.62216C19.4589 8.85511 19.7941 9.17756 20.0157 9.58949C20.2373 9.99858 20.3481 10.4716 20.3481 11.0085C20.3481 11.5426 20.2359 12.0128 20.0115 12.419C19.7899 12.8224 19.4546 13.1364 19.0058 13.3608C18.5598 13.5852 17.9987 13.6974 17.3225 13.6974H14.966V12.5639H17.2032C17.6294 12.5639 17.976 12.5028 18.243 12.3807C18.5129 12.2585 18.7103 12.081 18.8353 11.848C18.9603 11.6151 19.0228 11.3352 19.0228 11.0085C19.0228 10.679 18.9589 10.3935 18.8311 10.152C18.7061 9.91051 18.5086 9.72585 18.2387 9.59801C17.9717 9.46733 17.6208 9.40199 17.1862 9.40199H15.5328V17H14.216ZM18.5242 13.0625L20.6805 17H19.1805L17.0669 13.0625H18.5242Z" fill="white"/>
</svg>
