<svg width="25" height="24" viewBox="0 0 25 24" fill="none" xmlns="http://www.w3.org/2000/svg">
<path d="M16.4145 14.7639C16.4145 14.7151 16.4034 14.6668 16.3822 14.6229C16.2166 14.2609 16.063 13.8968 15.9233 13.5239C15.8185 13.2441 15.7191 12.9602 15.6287 12.6748C15.2001 11.3163 14.9514 9.90592 14.8895 8.48275C14.8769 8.18358 14.8732 7.88282 14.876 7.58412C14.8797 7.18583 14.8995 6.79115 14.9313 6.39436C14.9368 6.33943 14.9282 6.28377 14.9063 6.23304C14.8844 6.18232 14.85 6.13834 14.8066 6.10558C14.7633 6.07283 14.7125 6.05246 14.6594 6.04656C14.6063 6.04066 14.5529 6.04944 14.5045 6.072L4.23551 10.7686C4.17345 10.7964 4.12253 10.8453 4.09096 10.9073C4.05939 10.9693 4.04901 11.0408 4.06148 11.1103L4.55499 13.9091C4.56703 13.9787 4.60124 14.0423 4.65211 14.0898C4.70299 14.1372 4.76755 14.1657 4.83539 14.1707L16.0914 15.0718C16.116 15.0738 16.1406 15.0727 16.1648 15.0685C16.2112 15.0608 16.255 15.0419 16.2928 15.0134C16.3306 14.9848 16.3613 14.9474 16.3824 14.904C16.4036 14.8607 16.4145 14.8127 16.4145 14.7639Z" fill="#5F6269"/>
<path d="M16.2708 12.6802C16.4901 11.937 16.5327 11.1474 16.3952 10.3785C16.2614 9.60885 15.9513 8.88151 15.4911 8.25809C15.4912 8.3286 15.4937 8.39549 15.4963 8.46237C15.5563 9.82846 15.795 11.1822 16.2058 12.4865C16.2263 12.5502 16.2468 12.6139 16.2708 12.6802Z" fill="#5F6269"/>
<path d="M10.9641 15.2929L11.0277 15.6536C11.042 15.7361 11.0243 15.8206 10.9786 15.8887C10.9328 15.9569 10.8627 16.0031 10.7836 16.0173L10.1737 16.1248L10.6124 18.6127C10.6267 18.6951 10.609 18.7797 10.5633 18.8478C10.5175 18.916 10.4474 18.9622 10.3682 18.9764L9.48032 19.133C9.40107 19.1467 9.31937 19.1272 9.25308 19.0788C9.18679 19.0304 9.1413 18.957 9.12653 18.8747L8.68786 16.3868L8.09293 16.4917C8.01367 16.5055 7.93197 16.486 7.86568 16.4376C7.79939 16.3892 7.7539 16.3158 7.73913 16.2335L7.52473 15.0175L10.9641 15.2929Z" fill="#5F6269"/>
<path d="M18.1152 10.3958L20.8058 9.92138C20.8851 9.9074 20.9554 9.86123 21.0012 9.79302C21.047 9.72482 21.0645 9.64017 21.05 9.55769C21.0354 9.47521 20.99 9.40166 20.9236 9.35323C20.8573 9.3048 20.7755 9.28544 20.6962 9.29942L18.0055 9.77385C17.9263 9.78783 17.856 9.834 17.8102 9.90221C17.7644 9.97042 17.7469 10.0551 17.7614 10.1375C17.776 10.22 17.8214 10.2936 17.8878 10.342C17.9541 10.3904 18.0359 10.4098 18.1152 10.3958Z" fill="#5F6269"/>
<path d="M16.9012 7.72409C16.8353 7.73579 16.7673 7.72455 16.7077 7.69212C16.6481 7.65969 16.6002 7.60787 16.5714 7.54472C16.5427 7.48157 16.5347 7.41062 16.5487 7.34288C16.5628 7.27515 16.598 7.21443 16.6491 7.17014L18.7324 5.35987C18.7938 5.30652 18.8734 5.28096 18.9538 5.28881C19.0342 5.29666 19.1087 5.33728 19.1609 5.40173C19.2131 5.46619 19.2389 5.54919 19.2324 5.63249C19.2259 5.71579 19.1877 5.79256 19.1263 5.84591L17.043 7.65618C17.0025 7.69147 16.9536 7.7149 16.9012 7.72409Z" fill="#5F6269"/>
<path d="M20.3079 14.2951C20.3581 14.3144 20.4121 14.3197 20.4644 14.3104C20.5303 14.2989 20.5904 14.2651 20.6353 14.2142C20.6803 14.1633 20.7076 14.0983 20.713 14.0291C20.7184 13.9599 20.7016 13.8905 20.6652 13.8317C20.6289 13.7728 20.575 13.7278 20.5119 13.7036L17.9351 12.7151C17.8591 12.686 17.7755 12.6892 17.7027 12.724C17.6299 12.7589 17.5737 12.8226 17.5467 12.901C17.5197 12.9794 17.5239 13.0662 17.5585 13.1423C17.5756 13.1799 17.5996 13.2138 17.6293 13.242C17.6589 13.2702 17.6935 13.2921 17.7311 13.3066L20.3079 14.2951Z" fill="#5F6269"/>
</svg>
