<svg width="96" height="40" viewBox="0 0 96 40" fill="none" xmlns="http://www.w3.org/2000/svg">
<path d="M34.5859 9.87277L34.5634 9.84883C34.5493 9.83616 34.5345 9.8256 34.519 9.81434C34.488 9.78477 34.4543 9.75872 34.4183 9.73549L17.7636 0.103221C17.7206 0.080088 17.6753 0.0614506 17.6284 0.0476042L17.589 0.0314119L17.5601 0.0243718C17.4695 -0.00051755 17.3747 -0.00642391 17.2816 0.00702272C17.1886 0.0204693 17.0993 0.0529793 17.0194 0.102517L0.365381 9.73549C0.267893 9.7933 0.185973 9.87401 0.126722 9.97063L0.102081 10.0044C0.0950413 10.0164 0.0880013 10.0375 0.0802572 10.0537C0.0287029 10.1522 0.00120012 10.2615 0 10.3726V29.6386C0.00231694 29.6665 0.00631355 29.6942 0.0119681 29.7216C0.0239363 29.9554 0.157698 30.1652 0.363973 30.275L17.0187 39.9065C17.2743 40.0312 17.5735 40.0312 17.8291 39.9065L34.3092 30.3137C34.5922 30.2081 34.7809 29.9399 34.7837 29.6378V10.3726C34.7894 10.1861 34.7176 10.0051 34.5859 9.87277ZM1.47842 28.358V11.6511L15.9177 20.0049L1.47842 28.358ZM18.8949 19.988L33.3081 11.6511V28.3587L28.0668 25.3272L18.8949 19.988ZM18.129 18.7264V2.01883L32.5724 10.3726L18.129 18.7264ZM16.6505 18.7264L2.2113 10.3726L16.6541 2.01883L16.6505 18.7264ZM16.6505 21.2841V37.9909L2.2113 29.6386L16.6505 21.2841ZM18.1916 21.3221L27.3205 26.6022L32.5386 29.6386L18.1944 37.9867L18.1916 21.3221Z" fill="url(#paint0_linear_2001_69)"/>
<path d="M51.0358 16.9333L48.2733 24.8393H45.3925L42.6539 16.9333H45.3537L46.8265 22.5274H46.8652L47.1102 21.5192L48.338 16.9333H51.0358ZM55.8315 17.4881V19.1157H59.1404L59.1143 21.3249H55.8329V24.8386H53.1337V15.15H59.7866L59.8254 17.4881H55.8315ZM67.5899 23.1694H64.5894L64.1628 24.8365H61.308L64.5246 15.1479H67.7574L71.0255 24.8365H68.0158L67.5899 23.1694ZM65.8461 18.2998L65.1484 21.0123H67.0492L66.3628 18.3117L66.1298 17.2783H66.0911L65.8461 18.2998ZM73.1368 15.15H75.9014V24.8386H73.1368V15.15ZM84.9043 20.9377L87.01 24.8393H83.8574L82.4375 21.4678H81.4518V24.8393H78.752V15.15H82.4459C85.043 15.15 86.3602 16.1188 86.3602 18.2892C86.3644 19.579 85.8343 20.5646 84.9043 20.9377ZM82.4755 17.3078H81.4547V19.5297H82.4494C83.2506 19.5297 83.547 19.3361 83.547 18.3927C83.547 17.5401 83.2759 17.3078 82.4748 17.3078H82.4755ZM91.7543 25.0203C90.6835 25.0287 89.6254 24.7851 88.6658 24.3099L89.0023 22.0747C89.8436 22.5181 90.7775 22.7571 91.7283 22.7724C92.5935 22.7724 92.9293 22.514 92.9293 22.036C92.9293 20.8476 88.6792 21.3517 88.6792 18.0829C88.6792 16.3778 89.7775 14.9853 92.3739 14.9853C93.3341 14.9825 94.2874 15.1493 95.1899 15.4781L94.8801 17.6605C94.1173 17.4283 93.326 17.3022 92.5287 17.286C91.4819 17.286 91.2749 17.5676 91.2749 17.945C91.2749 19.146 95.513 18.6039 95.513 21.8719C95.5116 23.8058 94.0923 25.0203 91.7543 25.0203Z" fill="#1B1F29"/>
<defs>
<linearGradient id="paint0_linear_2001_69" x1="34.784" y1="0" x2="-0.0621416" y2="39.9458" gradientUnits="userSpaceOnUse">
<stop stop-color="#F14376"/>
<stop offset="1" stop-color="#F36531"/>
</linearGradient>
</defs>
</svg>
