<svg width="24" height="24" viewBox="0 0 24 24" fill="none" xmlns="http://www.w3.org/2000/svg">
<g clip-path="url(#clip0_2001_474)">
<path d="M10.102 11.7353C10.632 11.7353 11.0613 11.1493 11.0613 10.4273C11.0613 9.70534 10.632 9.11934 10.102 9.11934C9.57201 9.11934 9.14267 9.70534 9.14267 10.4273C9.14267 11.1493 9.57201 11.7353 10.102 11.7353ZM7.96601 12.6433C7.94867 12.4387 7.87868 16.122 12.008 16.344C16.052 16.1773 16.052 12.6433 16.052 12.6433C12 13.5873 7.96601 12.6433 7.96601 12.6433ZM15.5413 13.382C15.5413 13.382 15.0953 14.688 12.174 14.688C9.83734 14.688 8.58201 13.912 8.43601 13.382C8.43601 13.382 12.3773 14.0853 15.5413 13.382ZM11.8693 4.67401C7.73934 4.67401 4.65201 8.02201 4.65201 12.152C4.65201 16.282 7.86934 19.326 11.9993 19.326C16.1293 19.326 19.3467 16.282 19.3467 12.152C19.3473 8.02201 15.9993 4.67401 11.8693 4.67401ZM12 18.236C8.48468 18.236 5.74601 15.6453 5.74601 12.13C5.74601 8.61468 8.37401 5.76468 11.8893 5.76468C15.4047 5.76468 18.2547 8.61468 18.2547 12.13C18.254 15.6447 15.5153 18.236 12 18.236ZM14.072 11.7353C14.602 11.7353 15.0313 11.1493 15.0313 10.4273C15.0313 9.70534 14.602 9.11934 14.072 9.11934C13.542 9.11934 13.1127 9.70534 13.1127 10.4273C13.1127 11.1493 13.542 11.7353 14.072 11.7353Z" fill="#5F6269"/>
</g>
<defs>
<clipPath id="clip0_2001_474">
<rect width="16" height="16" fill="white" transform="translate(4 4)"/>
</clipPath>
</defs>
</svg>
