<svg width="24" height="24" viewBox="0 0 24 24" fill="none" xmlns="http://www.w3.org/2000/svg">
<g clip-path="url(#clip0_2001_497)">
<path d="M7.76467 6.17647V5.11558C7.76467 3.94597 8.71138 3 9.88373 3H17.2927C18.462 3 19.4117 3.94903 19.4117 5.11594V15.7076C19.4117 16.8773 18.465 17.8235 17.2927 17.8235H16.2352V18.884C16.2352 20.0538 15.2886 21 14.1162 21H6.70725C5.53764 21 4.5882 20.0519 4.5882 18.8844V8.29205C4.5882 7.12244 5.53491 6.17647 6.70725 6.17647H7.76467ZM15.1764 18.884V8.29241C15.1764 7.71044 14.7009 7.23529 14.1162 7.23529H6.70725C6.11949 7.23529 5.64701 7.70738 5.64701 8.29205V18.8844C5.64701 19.4668 6.12208 19.9412 6.70725 19.9412H14.1162C14.704 19.9412 15.1764 19.4689 15.1764 18.884ZM16.2353 16.7647H17.2927C17.8804 16.7647 18.3529 16.2925 18.3529 15.7076V5.11594C18.3529 4.53397 17.8774 4.05881 17.2927 4.05881H9.88373C9.29596 4.05881 8.82351 4.53094 8.82351 5.11558V6.17647H14.1162C15.2855 6.17647 16.2353 7.1255 16.2353 8.29241V16.7647ZM10.4117 14.1176C9.096 14.1176 8.02937 13.051 8.02937 11.7353C8.02937 10.4195 9.096 9.35292 10.4117 9.35292C11.7275 9.35292 12.7941 10.4195 12.7941 11.7353C12.7941 13.051 11.7275 14.1176 10.4117 14.1176ZM10.4117 13.0588C11.1427 13.0588 11.7353 12.4663 11.7353 11.7353C11.7353 11.0043 11.1427 10.4118 10.4117 10.4118C9.68079 10.4118 9.08822 11.0044 9.08822 11.7353C9.08822 12.4663 9.68076 13.0588 10.4117 13.0588ZM7.76467 16.2353C7.47228 16.2353 7.23526 15.9983 7.23526 15.7059C7.23526 15.4135 7.47228 15.1765 7.76467 15.1765H13.0588C13.3512 15.1765 13.5882 15.4135 13.5882 15.7059C13.5882 15.9983 13.3512 16.2353 13.0588 16.2353H7.76467ZM9.08822 18.3529C8.79582 18.3529 8.55881 18.1159 8.55881 17.8235C8.55881 17.5312 8.79582 17.2941 9.08822 17.2941H11.7353C12.0277 17.2941 12.2647 17.5312 12.2647 17.8235C12.2647 18.1159 12.0277 18.3529 11.7353 18.3529H9.08822Z" fill="#5F6269" stroke="#5F6269" stroke-width="0.2"/>
</g>
<defs>
<clipPath id="clip0_2001_497">
<rect width="18" height="18" fill="white" transform="translate(3 3)"/>
</clipPath>
</defs>
</svg>
