<svg width="28" height="28" viewBox="0 0 28 28" fill="none" xmlns="http://www.w3.org/2000/svg">
<path d="M22.2813 8.22503C21.9329 7.87543 21.5189 7.59804 21.0631 7.40877C20.6073 7.2195 20.1186 7.12207 19.625 7.12207C19.1315 7.12207 18.6428 7.2195 18.1869 7.40877C17.7311 7.59804 17.3171 7.87543 16.9688 8.22503L17.8563 9.11253C18.0889 8.87984 18.3652 8.69526 18.6692 8.56934C18.9732 8.44341 19.2991 8.37859 19.6281 8.37859C19.9572 8.37859 20.283 8.44341 20.5871 8.56934C20.8911 8.69526 21.1673 8.87984 21.4 9.11253C21.6327 9.34521 21.8173 9.62145 21.9432 9.92547C22.0691 10.2295 22.1339 10.5553 22.1339 10.8844C22.1339 11.2135 22.0691 11.5393 21.9432 11.8433C21.8173 12.1474 21.6327 12.4236 21.4 12.6563L16.4 17.6563C15.9309 18.1262 15.2943 18.3905 14.6303 18.3911C13.9663 18.3917 13.3293 18.1285 12.8594 17.6594C12.3895 17.1903 12.1251 16.5537 12.1245 15.8897C12.124 15.2257 12.3872 14.5887 12.8563 14.1188L13.7375 13.2313L12.8563 12.3438L11.9688 13.2313C11.6192 13.5797 11.3418 13.9936 11.1525 14.4495C10.9632 14.9053 10.8658 15.394 10.8658 15.8875C10.8658 16.3811 10.9632 16.8698 11.1525 17.3256C11.3418 17.7814 11.6192 18.1954 11.9688 18.5438C12.6759 19.2419 13.6313 19.6308 14.625 19.625C15.1205 19.6271 15.6114 19.5309 16.0695 19.3421C16.5275 19.1533 16.9436 18.8756 17.2938 18.525L22.2938 13.525C22.9944 12.8202 23.3866 11.8662 23.3842 10.8724C23.3819 9.87869 22.9852 8.9265 22.2813 8.22503Z" fill="#5F6269"/>
<path d="M6.61876 19.5125C6.38538 19.2802 6.20019 19.0041 6.07383 18.7C5.94746 18.396 5.88241 18.0699 5.88241 17.7407C5.88241 17.4114 5.94746 17.0853 6.07383 16.7813C6.20019 16.4772 6.38538 16.2011 6.61876 15.9688L11.6188 10.9688C11.8511 10.7354 12.1272 10.5502 12.4312 10.4238C12.7353 10.2975 13.0614 10.2324 13.3906 10.2324C13.7199 10.2324 14.046 10.2975 14.35 10.4238C14.6541 10.5502 14.9302 10.7354 15.1625 10.9688C15.3944 11.2029 15.577 11.4812 15.6994 11.7872C15.8217 12.0931 15.8815 12.4206 15.875 12.75C15.8769 13.0805 15.8133 13.4081 15.6878 13.7139C15.5622 14.0196 15.3773 14.2974 15.1438 14.5313L13.8188 15.875L14.7063 16.7625L16.0313 15.4375C16.7366 14.7322 17.1328 13.7756 17.1328 12.7782C17.1328 11.7807 16.7366 10.8241 16.0313 10.1188C15.326 9.41347 14.3693 9.01723 13.3719 9.01723C12.3744 9.01723 11.4178 9.41347 10.7125 10.1188L5.71251 15.1188C5.36197 15.4673 5.08379 15.8816 4.89396 16.338C4.70414 16.7944 4.60641 17.2839 4.60641 17.7782C4.60641 18.2725 4.70414 18.7619 4.89396 19.2183C5.08379 19.6747 5.36197 20.089 5.71251 20.4375C6.42428 21.1303 7.38182 21.5124 8.37501 21.5C9.37695 21.501 10.3386 21.1055 11.05 20.4L10.1625 19.5125C9.93022 19.7459 9.6541 19.9311 9.35003 20.0575C9.04596 20.1838 8.71992 20.2489 8.39064 20.2489C8.06135 20.2489 7.73531 20.1838 7.43124 20.0575C7.12717 19.9311 6.85106 19.7459 6.61876 19.5125Z" fill="#5F6269"/>
</svg>
