<svg width="24" height="24" viewBox="0 0 24 24" fill="none" xmlns="http://www.w3.org/2000/svg">
<rect width="24" height="24" rx="12" fill="#F0F2F6"/>
<path fill-rule="evenodd" clip-rule="evenodd" d="M12 8.66667C12.736 8.66667 13.3333 8.06933 13.3333 7.33333C13.3333 6.59733 12.736 6 12 6C11.264 6 10.6666 6.59733 10.6666 7.33333C10.6666 8.06933 11.264 8.66667 12 8.66667ZM12 10.6667C11.264 10.6667 10.6666 11.264 10.6666 12C10.6666 12.736 11.264 13.3333 12 13.3333C12.736 13.3333 13.3333 12.736 13.3333 12C13.3333 11.264 12.736 10.6667 12 10.6667ZM10.6666 16.6667C10.6666 15.9307 11.264 15.3333 12 15.3333C12.736 15.3333 13.3333 15.9307 13.3333 16.6667C13.3333 17.4027 12.736 18 12 18C11.264 18 10.6666 17.4027 10.6666 16.6667Z" fill="#1B1F29"/>
<mask id="mask0_0_992" style="mask-type:luminance" maskUnits="userSpaceOnUse" x="10" y="6" width="4" height="12">
<path fill-rule="evenodd" clip-rule="evenodd" d="M12 8.66667C12.736 8.66667 13.3333 8.06933 13.3333 7.33333C13.3333 6.59733 12.736 6 12 6C11.264 6 10.6666 6.59733 10.6666 7.33333C10.6666 8.06933 11.264 8.66667 12 8.66667ZM12 10.6667C11.264 10.6667 10.6666 11.264 10.6666 12C10.6666 12.736 11.264 13.3333 12 13.3333C12.736 13.3333 13.3333 12.736 13.3333 12C13.3333 11.264 12.736 10.6667 12 10.6667ZM10.6666 16.6667C10.6666 15.9307 11.264 15.3333 12 15.3333C12.736 15.3333 13.3333 15.9307 13.3333 16.6667C13.3333 17.4027 12.736 18 12 18C11.264 18 10.6666 17.4027 10.6666 16.6667Z" fill="white"/>
</mask>
<g mask="url(#mask0_0_992)">
<rect x="4" y="4" width="16" height="16" fill="#1B1F29"/>
</g>
</svg>
