<svg width="96" height="17" viewBox="0 0 96 17" fill="none" xmlns="http://www.w3.org/2000/svg">
<path d="M7.14319 1.92372C7.53185 1.2779 8.46815 1.2779 8.85681 1.92372L10.4148 4.51261C10.5545 4.74463 10.7822 4.91009 11.046 4.97119L13.9896 5.65294C14.724 5.82301 15.0133 6.71348 14.5192 7.28269L12.5385 9.56447C12.3609 9.76896 12.2739 10.0367 12.2974 10.3065L12.5586 13.3167C12.6238 14.0676 11.8663 14.618 11.1723 14.3239L8.39009 13.1453C8.14076 13.0396 7.85924 13.0396 7.60991 13.1453L4.82773 14.3239C4.1337 14.618 3.37622 14.0676 3.44139 13.3167L3.70264 10.3065C3.72605 10.0367 3.63906 9.76896 3.46155 9.56447L1.48082 7.28269C0.986711 6.71349 1.27604 5.82301 2.01036 5.65295L4.95399 4.97119C5.2178 4.9101 5.44555 4.74463 5.58517 4.51261L7.14319 1.92372Z" fill="#FFA32D"/>
<path d="M27.1432 1.92372C27.5319 1.2779 28.4681 1.2779 28.8568 1.92372L30.4148 4.51261C30.5545 4.74463 30.7822 4.91009 31.046 4.97119L33.9896 5.65294C34.724 5.82301 35.0133 6.71348 34.5192 7.28269L32.5385 9.56447C32.3609 9.76896 32.2739 10.0367 32.2974 10.3065L32.5586 13.3167C32.6238 14.0676 31.8663 14.618 31.1723 14.3239L28.3901 13.1453C28.1408 13.0396 27.8592 13.0396 27.6099 13.1453L24.8277 14.3239C24.1337 14.618 23.3762 14.0676 23.4414 13.3167L23.7026 10.3065C23.726 10.0367 23.6391 9.76896 23.4615 9.56447L21.4808 7.28269C20.9867 6.71349 21.276 5.82301 22.0104 5.65295L24.954 4.97119C25.2178 4.9101 25.4455 4.74463 25.5852 4.51261L27.1432 1.92372Z" fill="#FFA32D"/>
<path d="M47.1432 1.92372C47.5319 1.2779 48.4681 1.2779 48.8568 1.92372L50.4148 4.51261C50.5545 4.74463 50.7822 4.91009 51.046 4.97119L53.9896 5.65294C54.724 5.82301 55.0133 6.71348 54.5192 7.28269L52.5385 9.56447C52.3609 9.76896 52.2739 10.0367 52.2974 10.3065L52.5586 13.3167C52.6238 14.0676 51.8663 14.618 51.1723 14.3239L48.3901 13.1453C48.1408 13.0396 47.8592 13.0396 47.6099 13.1453L44.8277 14.3239C44.1337 14.618 43.3762 14.0676 43.4414 13.3167L43.7026 10.3065C43.726 10.0367 43.6391 9.76896 43.4615 9.56447L41.4808 7.28269C40.9867 6.71349 41.276 5.82301 42.0104 5.65295L44.954 4.97119C45.2178 4.9101 45.4455 4.74463 45.5852 4.51261L47.1432 1.92372Z" fill="#FFA32D"/>
<path d="M67.1432 1.92372C67.5319 1.2779 68.4681 1.2779 68.8568 1.92372L70.4148 4.51261C70.5545 4.74463 70.7822 4.91009 71.046 4.97119L73.9896 5.65294C74.724 5.82301 75.0133 6.71348 74.5192 7.28269L72.5385 9.56447C72.3609 9.76896 72.2739 10.0367 72.2974 10.3065L72.5586 13.3167C72.6238 14.0676 71.8663 14.618 71.1723 14.3239L68.3901 13.1453C68.1408 13.0396 67.8592 13.0396 67.6099 13.1453L64.8277 14.3239C64.1337 14.618 63.3762 14.0676 63.4414 13.3167L63.7026 10.3065C63.726 10.0367 63.6391 9.76896 63.4615 9.56447L61.4808 7.28269C60.9867 6.71349 61.276 5.82301 62.0104 5.65295L64.954 4.97119C65.2178 4.9101 65.4455 4.74463 65.5852 4.51261L67.1432 1.92372Z" fill="#DFE2E8"/>
<path d="M87.1432 1.92372C87.5319 1.2779 88.4681 1.2779 88.8568 1.92372L90.4148 4.51261C90.5545 4.74463 90.7822 4.91009 91.046 4.97119L93.9896 5.65294C94.724 5.82301 95.0133 6.71348 94.5192 7.28269L92.5385 9.56447C92.3609 9.76896 92.2739 10.0367 92.2974 10.3065L92.5586 13.3167C92.6238 14.0676 91.8663 14.618 91.1723 14.3239L88.3901 13.1453C88.1408 13.0396 87.8592 13.0396 87.6099 13.1453L84.8277 14.3239C84.1337 14.618 83.3762 14.0676 83.4414 13.3167L83.7026 10.3065C83.726 10.0367 83.6391 9.76896 83.4615 9.56447L81.4808 7.28269C80.9867 6.71349 81.276 5.82301 82.0104 5.65295L84.954 4.97119C85.2178 4.9101 85.4455 4.74463 85.5852 4.51261L87.1432 1.92372Z" fill="#DFE2E8"/>
</svg>
